<svg width="26" height="18" viewBox="0 0 26 18" fill="none" xmlns="http://www.w3.org/2000/svg">
<path d="M14.6805 8.14565L14.6827 8.65712C14.6827 10.7828 14.5582 12.7208 14.3707 13.9841L14.2065 14.7697C14.1151 15.1858 13.9949 15.6595 13.8696 15.9014C13.4111 16.786 12.5145 17.3333 11.5549 17.3333H11.4714C10.8458 17.3127 9.53164 16.7637 9.53164 16.7446C7.417 15.8574 3.33733 13.1795 1.45311 11.2704L0.905564 10.6973C0.762181 10.5419 0.601092 10.3581 0.501085 10.2148C0.167028 9.77247 0 9.22514 0 8.6778C0 8.06683 0.187513 7.49881 0.542054 7.03421L1.10461 6.4271L1.23065 6.29753C2.94033 4.44391 7.4044 1.41289 9.73964 0.485282L10.0922 0.350164C10.5165 0.198091 11.1109 0.0167064 11.4714 0C11.9299 0 12.368 0.106603 12.7855 0.316627C13.3071 0.610979 13.7231 1.07558 13.9532 1.62291C14.0997 2.00159 14.3298 3.13922 14.3298 3.1599C14.5407 4.30696 14.663 6.11696 14.6805 8.14565ZM26 8.6673C26 9.87812 25.0278 10.8598 23.8286 10.8598L18.4853 10.3873C17.5446 10.3873 16.7819 9.61718 16.7819 8.6673C16.7819 7.71583 17.5446 6.94734 18.4853 6.94734L23.8286 6.47478C25.0278 6.47478 26 7.45648 26 8.6673Z" fill="#4693F8"/>
</svg>
