<svg width="22" height="22" viewBox="0 0 22 22" fill="none" xmlns="http://www.w3.org/2000/svg">
<rect width="22" height="22" rx="11" fill="#4693F8"/>
<path d="M15.4395 6.56062C15.2618 6.38288 15.0509 6.24189 14.8188 6.1457C14.5866 6.04951 14.3378 6 14.0865 6C13.8352 6 13.5864 6.04951 13.3543 6.1457C13.1221 6.24189 12.9112 6.38288 12.7335 6.56062L12.1837 7.11154C12.1562 7.13349 12.1311 7.15829 12.1088 7.18553L6.6508 12.6458C6.58101 12.7154 6.53337 12.8041 6.51385 12.9007L6.01004 15.4004C5.9936 15.4812 5.9974 15.5648 6.02108 15.6437C6.04477 15.7227 6.08761 15.7946 6.14579 15.853C6.20398 15.9114 6.27569 15.9545 6.35456 15.9784C6.43343 16.0024 6.51699 16.0065 6.59782 15.9903L9.10088 15.4904C9.1975 15.4708 9.28618 15.4232 9.35579 15.3534L15.4395 9.26824C15.6172 9.09053 15.7582 8.87955 15.8543 8.64734C15.9505 8.41514 16 8.16626 16 7.91493C16 7.66359 15.9505 7.41471 15.8543 7.18251C15.7582 6.95031 15.6172 6.73933 15.4395 6.56162M12.4996 8.21039L13.7921 9.5032L8.75601 14.5395L7.13862 14.8635L7.4635 13.2477L12.4996 8.21039ZM14.4989 8.7963L13.2063 7.50248L13.4403 7.26852C13.5247 7.18197 13.6255 7.11304 13.7367 7.06573C13.848 7.01842 13.9675 6.99366 14.0884 6.9929C14.2093 6.99213 14.3291 7.01538 14.441 7.06128C14.5528 7.10718 14.6545 7.17482 14.74 7.2603C14.8255 7.34577 14.8932 7.44737 14.9392 7.55921C14.9852 7.67105 15.0085 7.7909 15.0078 7.91182C15.0072 8.03275 14.9825 8.15233 14.9353 8.26365C14.8881 8.37498 14.8192 8.47582 14.7328 8.56034L14.4989 8.7963Z" fill="white"/>
</svg>
