<svg width="35" height="32" viewBox="0 0 35 32" fill="none" xmlns="http://www.w3.org/2000/svg">
<path d="M0 15.8854C0 16.6158 0.56895 17.0573 1.27342 17.0573C1.70813 17.0573 2.05269 16.8443 2.35251 16.5398L16.9758 3.01244C17.1401 2.84493 17.3204 2.78391 17.5147 2.78391C17.695 2.78391 17.8599 2.84493 18.0389 3.01244L32.6475 16.5398C32.962 16.8443 33.3066 17.0573 33.7266 17.0573C34.4304 17.0573 35 16.6158 35 15.8854C35 15.429 34.8351 15.1401 34.5506 14.881L29.3661 10.0884V1.09525C29.3661 0.425896 28.9468 0 28.2877 0H26.3251C25.6807 0 25.2313 0.425896 25.2313 1.09525V6.26899L19.2976 0.760251C18.7734 0.258394 18.129 0.0155817 17.5 0.0155817C16.8703 0.0155817 16.2413 0.259044 15.7017 0.7609L0.449406 14.881C0.179635 15.1401 0 15.429 0 15.8854ZM4.28502 28.6519C4.28502 30.7671 5.54374 32 7.65589 32H13.7245V21.1805C13.7245 20.4807 14.1886 20.0249 14.8777 20.0249H20.167C20.8562 20.0249 21.3056 20.4807 21.3056 21.1805V32H27.3588C29.471 32 30.715 30.7671 30.715 28.6519V17.5137L17.9942 5.87295C17.8292 5.72103 17.6496 5.64507 17.47 5.64507C17.305 5.64507 17.1401 5.72103 16.9605 5.88854L4.28502 17.5896V28.6519Z" fill="white"/>
</svg>
