<svg width="21" height="21" viewBox="0 0 21 21" fill="none" xmlns="http://www.w3.org/2000/svg">
<path d="M15.0517 0C18.6101 0 21.001 2.4969 21.001 6.2118V14.7882C21.001 18.5031 18.6091 21 15.0506 21H9.40163C8.96693 21 8.61413 20.6472 8.61413 20.2125C8.61413 19.7778 8.96693 19.425 9.40163 19.425H15.0506C17.7082 19.425 19.426 17.6053 19.426 14.7882V6.2118C19.426 3.39465 17.7082 1.575 15.0517 1.575H5.94923C3.29273 1.575 1.57598 3.39465 1.57598 6.2118V14.7882C1.57598 17.6053 3.29273 19.425 5.94923 19.425C6.38393 19.425 6.73673 19.7778 6.73673 20.2125C6.73673 20.6472 6.38393 21 5.94923 21C2.39078 21 0.000976562 18.5031 0.000976562 14.7882V6.2118C0.000976562 2.4969 2.39078 0 5.94923 0H15.0517ZM7.18298 7.76853C8.41463 7.76853 9.44468 8.59173 9.78488 9.71208H15.7615C16.1962 9.71208 16.549 10.0649 16.549 10.4996V12.4442C16.549 12.8789 16.1962 13.2317 15.7615 13.2317C15.3268 13.2317 14.974 12.8789 14.974 12.4442V11.2871H13.5785V12.4442C13.5785 12.8789 13.2257 13.2317 12.791 13.2317C12.3563 13.2317 12.0035 12.8789 12.0035 12.4442V11.2871H9.78488C9.44468 12.4085 8.41463 13.2317 7.18298 13.2317C5.67728 13.2317 4.45193 12.0063 4.45193 10.4996C4.45193 10.11 4.53173 9.73413 4.69133 9.37923C4.86983 8.98233 5.33393 8.80488 5.73293 8.98443C6.12983 9.16188 6.30623 9.62808 6.12773 10.025C6.06053 10.1751 6.02693 10.3347 6.02693 10.4996C6.02693 11.138 6.54563 11.6567 7.18298 11.6567C7.82138 11.6567 8.34008 11.138 8.34008 10.4996C8.34008 9.86223 7.82138 9.34353 7.18298 9.34353C6.74828 9.34353 6.39548 8.99073 6.39548 8.55603C6.39548 8.12133 6.74828 7.76853 7.18298 7.76853Z" fill="#451A4A"/>
</svg>
