<svg width="18" height="22" viewBox="0 0 18 22" fill="none" xmlns="http://www.w3.org/2000/svg">
<path fill-rule="evenodd" clip-rule="evenodd" d="M17.218 17.6011C17.218 21.1837 12.305 21.5978 8.61057 21.5978L8.34618 21.5975C5.99237 21.5918 0.000976562 21.4432 0.000976562 17.5794C0.000976562 14.07 4.71647 13.601 8.38284 13.5833L8.87494 13.583C11.2286 13.5887 17.218 13.7373 17.218 17.6011ZM8.61057 15.2131C3.97915 15.2131 1.63137 16.0088 1.63137 17.5794C1.63137 19.1641 3.97915 19.9674 8.61057 19.9674C13.2409 19.9674 15.5876 19.1717 15.5876 17.6011C15.5876 16.0164 13.2409 15.2131 8.61057 15.2131ZM8.61057 0C11.7931 0 14.3811 2.58907 14.3811 5.77161C14.3811 8.95415 11.7931 11.5421 8.61057 11.5421H8.57578C5.39977 11.5324 2.827 8.94219 2.83783 5.76835C2.83783 2.58907 5.42694 0 8.61057 0ZM8.61057 1.55214C6.28344 1.55214 4.38999 3.44449 4.38999 5.77161C4.3824 8.09112 6.26171 9.98239 8.57904 9.99108L8.61057 10.7671V9.99108C10.9366 9.99108 12.8289 8.09764 12.8289 5.77161C12.8289 3.44449 10.9366 1.55214 8.61057 1.55214Z" fill="#451A4A"/>
</svg>
