<svg width="26" height="26" viewBox="0 0 26 26" fill="none" xmlns="http://www.w3.org/2000/svg">
<rect width="26" height="26" rx="13" fill="#D73C3C"/>
<path fill-rule="evenodd" clip-rule="evenodd" d="M11.1006 8.56729V7.23775H14.8993V8.56729H11.1006ZM9.83433 8.56729V6.79457C9.83433 6.55949 9.92326 6.33404 10.0816 6.16781C10.2399 6.00159 10.4546 5.9082 10.6785 5.9082H15.3213C15.5452 5.9082 15.7599 6.00159 15.9182 6.16781C16.0766 6.33404 16.1655 6.55949 16.1655 6.79457V8.56729H18.2759C18.4438 8.56729 18.6048 8.63733 18.7236 8.762C18.8423 8.88667 18.909 9.05576 18.909 9.23207C18.909 9.40838 18.8423 9.57746 18.7236 9.70213C18.6048 9.8268 18.4438 9.89684 18.2759 9.89684H17.9678L17.3406 18.4529C17.308 18.8983 17.1166 19.3143 16.8045 19.6178C16.4924 19.9213 16.0827 20.09 15.6573 20.09H10.3425C9.91712 20.09 9.50742 19.9213 9.19534 19.6178C8.88326 19.3143 8.6918 18.8983 8.65926 18.4529L8.03205 9.89684H7.72394C7.55602 9.89684 7.39499 9.8268 7.27626 9.70213C7.15752 9.57746 7.09082 9.40838 7.09082 9.23207C7.09082 9.05576 7.15752 8.88667 7.27626 8.762C7.39499 8.63733 7.55602 8.56729 7.72394 8.56729H9.83433ZM9.30251 9.89684H16.6973L16.0777 18.351C16.0696 18.4623 16.0218 18.5663 15.9439 18.6422C15.866 18.7181 15.7636 18.7604 15.6573 18.7605H10.3425C10.2362 18.7604 10.1339 18.7181 10.0559 18.6422C9.97798 18.5663 9.9302 18.4623 9.92212 18.351L9.30251 9.89684Z" fill="white"/>
</svg>
