<svg xmlns="http://www.w3.org/2000/svg" width="500" height="500" style="width:100%;height:100%;transform:translate3d(0,0,0)" viewBox="0 0 500 500"><defs><clipPath id="a"><path d="M0 0h500v500H0z"/></clipPath><clipPath id="c"><path d="M0 0h500v500H0z"/></clipPath><clipPath id="b"><path d="M0 0h500v500H0z"/></clipPath></defs><g clip-path="url(#a)"><g clip-path="url(#b)" style="display:block"><g class="primary design" style="display:none"><path fill="#9DC6FF" d="m431.367 398.81-78.321-78.3c20.226-26.954 32.349-60.324 32.349-96.547 0-89.007-72.426-161.433-161.432-161.433-89.007 0-161.433 72.426-161.433 161.433s72.426 161.432 161.433 161.432c37.806 0 72.53-13.144 100.067-34.994l77.883 77.862a20.77 20.77 0 0 0 14.727 6.103 20.77 20.77 0 0 0 14.727-6.103c8.144-8.144 8.144-21.309 0-29.453M93.775 223.963c0-71.78 58.407-130.188 130.188-130.188S354.15 152.182 354.15 223.963 295.743 354.15 223.963 354.15 93.775 295.743 93.775 223.963" class="primary"/></g><g class="primary design" style="display:block"><path fill="#9DC6FF" d="m431.367 398.81-78.321-78.3c20.226-26.954 32.349-60.324 32.349-96.547 0-89.007-72.426-161.433-161.432-161.433-89.007 0-161.433 72.426-161.433 161.433s72.426 161.432 161.433 161.432c37.806 0 72.53-13.144 100.067-34.994l77.883 77.862a20.77 20.77 0 0 0 14.727 6.103 20.77 20.77 0 0 0 14.727-6.103c8.144-8.144 8.144-21.309 0-29.453M93.775 223.963c0-71.78 58.407-130.188 130.188-130.188S354.15 152.182 354.15 223.963 295.743 354.15 223.963 354.15 93.775 295.743 93.775 223.963" class="primary"/></g><g class="primary design" style="display:none"><path fill="none" class="primary"/></g><g class="primary design" style="display:none"><path class="primary"/><path fill="none" class="primary"/></g></g><g clip-path="url(#c)" style="display:none"><g class="primary design" style="display:none"><path class="primary"/></g><g class="primary design" style="display:none"><path fill="none" class="primary"/></g><g class="primary design" style="display:none"><path class="primary"/><path fill="none" class="primary"/></g></g></g></svg>