<svg xmlns="http://www.w3.org/2000/svg" width="500" height="500" style="width:100%;height:100%;transform:translate3d(0,0,0);content-visibility:visible" viewBox="0 0 500 500"><defs><clipPath id="a"><path d="M0 0h500v500H0z"/></clipPath><clipPath id="e"><path d="M0 0h500v500H0z"/></clipPath><clipPath id="d"><path d="M0 0h500v500H0z"/></clipPath><clipPath id="c"><path d="M0 0h500v500H0z"/></clipPath><clipPath id="b"><path d="M0 0h500v500H0z"/></clipPath></defs><g clip-path="url(#a)"><g class="primary design" clip-path="url(#b)" style="display:none"><path class="primary"/></g><g class="primary design" clip-path="url(#c)" style="display:none"><path class="primary"/></g><g class="primary design" clip-path="url(#d)" style="display:block"><path fill="#68516A" d="M213.543 41.872h72.916c14.373 0 26.067 11.693 26.067 26.066v27.888c14.221 5.63 27.558 13.4 39.845 23.214l24.15-14.013c12.438-7.253 28.488-3.044 35.748 9.4l36.492 63.184q.108.186.209.374c6.844 12.634 2.337 28.39-10.035 35.255l-23.841 13.771c1.062 7.436 1.598 15.204 1.598 23.218s-.536 15.784-1.598 23.219l23.842 13.771c12.371 6.865 16.878 22.62 10.035 35.254q-.102.188-.21.375l-36.458 63.125c-3.559 6.101-9.236 10.399-16.02 12.163-6.745 1.756-13.775.788-19.794-2.723l-24.118-13.995c-12.287 9.814-25.626 17.586-39.845 23.215v27.887c0 14.373-11.694 26.066-26.067 26.066h-72.916c-14.373 0-26.067-11.693-26.067-26.066v-27.887c-14.218-5.629-27.557-13.401-39.845-23.215l-24.15 14.014c-12.436 7.256-28.486 3.048-35.747-9.4l-36.493-63.184q-.107-.187-.21-.375c-6.842-12.633-2.335-28.386 10.034-35.252l23.843-13.773c-1.062-7.437-1.598-15.207-1.598-23.219 0-8.011.536-15.781 1.598-23.218l-23.842-13.772c-12.372-6.865-16.878-22.62-10.034-35.254q.101-.188.209-.374L87.7 114.486c7.293-12.502 23.342-16.712 35.81-9.443l24.121 13.997c12.288-9.814 25.624-17.584 39.845-23.214V67.938c0-14.373 11.694-26.066 26.067-26.066m67.683 31.3h-62.45v33.724a15.65 15.65 0 0 1-11.025 14.952c-17.513 5.417-33.59 14.778-47.786 27.822a15.65 15.65 0 0 1-18.444 2.012l-29.33-17.019-31.164 53.959 29.094 16.806a15.65 15.65 0 0 1 7.427 17.046c-1.949 8.51-2.938 17.848-2.938 27.755s.989 19.247 2.938 27.755a15.65 15.65 0 0 1-7.427 17.046l-29.094 16.807 31.164 53.958 29.33-17.019a15.65 15.65 0 0 1 18.444 2.012c14.198 13.046 30.275 22.407 47.785 27.823a15.65 15.65 0 0 1 11.026 14.951v33.724h62.45v-33.724c0-6.862 4.47-12.924 11.026-14.951 17.511-5.416 33.588-14.777 47.784-27.823a15.65 15.65 0 0 1 18.444-2.012l29.332 17.019 31.164-53.959-29.095-16.805a15.65 15.65 0 0 1-7.426-17.049c1.948-8.503 2.937-17.841 2.937-27.753s-.989-19.249-2.938-27.754a15.65 15.65 0 0 1 7.427-17.047l29.095-16.806-31.164-53.959-29.332 17.019a15.65 15.65 0 0 1-18.444-2.012c-14.194-13.044-30.271-22.405-47.785-27.822a15.65 15.65 0 0 1-11.025-14.952zm111.014 58.921.019-.011zm-284.449.017-.019-.011zm-31.585 53.734h-.01zM392.23 368.359l-.019-.011zm-284.49.019.02-.011zm142.261-201.507c7.065 0 14.275.939 21.425 2.791q.262.069.523.145c5.082 1.506 12.625 4.009 19.767 8.405a80.2 80.2 0 0 1 30.302 30.3c4.395 7.139 6.898 14.686 8.405 19.771q.077.258.144.52c1.853 7.146 2.792 14.355 2.792 21.426s-.939 14.28-2.792 21.427q-.067.263-.144.522c-1.508 5.085-4.01 12.63-8.405 19.768a80.2 80.2 0 0 1-30.299 30.298c-7.138 4.396-14.685 6.9-19.77 8.407a15 15 0 0 1-.519.144c-7.147 1.853-14.358 2.792-21.429 2.792-7.072 0-14.282-.939-21.428-2.792a15 15 0 0 1-.519-.144c-5.086-1.508-12.633-4.012-19.771-8.407a80.2 80.2 0 0 1-30.298-30.299c-4.394-7.134-6.897-14.681-8.405-19.767a15 15 0 0 1-.143-.519c-1.854-7.146-2.794-14.357-2.794-21.43s.94-14.284 2.794-21.429q.067-.26.143-.517c1.508-5.086 4.01-12.634 8.405-19.77a80.2 80.2 0 0 1 30.299-30.3c7.142-4.396 14.687-6.899 19.77-8.406q.26-.077.523-.145c7.149-1.852 14.358-2.791 21.424-2.791m13.32 33.026c-4.502-1.145-8.982-1.726-13.32-1.726s-8.817.58-13.319 1.725c-5.28 1.581-9.143 3.192-12.138 5.064a16 16 0 0 1-.646.382 48.9 48.9 0 0 0-18.783 18.784q-.185.33-.386.65c-1.868 2.99-3.479 6.851-5.06 12.136-1.146 4.495-1.726 8.975-1.726 13.317s.58 8.821 1.726 13.318c1.581 5.285 3.192 9.146 5.06 12.135q.201.32.386.65a48.9 48.9 0 0 0 18.782 18.784q.329.184.65.384c2.991 1.87 6.854 3.481 12.137 5.062 4.497 1.145 8.975 1.725 13.317 1.725 4.341 0 8.82-.58 13.318-1.725 5.282-1.581 9.144-3.191 12.136-5.062q.32-.2.65-.385a48.9 48.9 0 0 0 18.783-18.783q.184-.328.384-.648c1.87-2.992 3.481-6.853 5.062-12.136 1.145-4.498 1.725-8.978 1.725-13.319s-.58-8.819-1.724-13.316c-1.581-5.284-3.193-9.146-5.064-12.139a16 16 0 0 1-.383-.648 48.9 48.9 0 0 0-18.784-18.784q-.327-.183-.646-.382c-2.996-1.872-6.858-3.483-12.137-5.063m-78.736 32.833h-.01z" class="primary"/></g><g clip-path="url(#e)" style="display:none"><g class="primary design" style="display:none"><path fill="none" class="primary"/></g><g class="primary design" style="display:none"><path fill="none" class="primary"/></g><g class="primary design" style="display:none"><path class="primary"/></g></g></g></svg>