<svg width="24" height="19" viewBox="0 0 24 19" fill="none" xmlns="http://www.w3.org/2000/svg">
<path d="M20.8631 0.225436C21.2063 -0.0751455 21.7619 -0.0751455 22.1051 0.225436C22.4483 0.526018 22.4483 1.01262 22.1051 1.31321L3.13912 17.924C2.96752 18.0743 2.74312 18.15 2.51872 18.15C2.29312 18.15 2.06872 18.0743 1.89712 17.924C1.55393 17.6235 1.55393 17.1369 1.89712 16.8373L8.13232 11.3753C7.60552 10.7027 7.31872 9.90922 7.31872 9.07579C7.31872 6.81407 9.41872 4.97484 12.0011 4.97484C12.9455 4.97484 13.8647 5.22918 14.6291 5.68531L17.0699 3.54865C13.6283 1.58751 9.43192 1.75567 6.15352 4.02895C4.42192 5.22182 2.93512 6.96226 1.83953 9.07684C2.32672 10.0217 2.89312 10.8929 3.52432 11.6707C3.80512 12.0164 3.71272 12.4967 3.31792 12.7427C3.16312 12.8394 2.98552 12.8856 2.80912 12.8856C2.53432 12.8856 2.26432 12.7742 2.09272 12.5619C1.32233 11.6129 0.641926 10.5419 0.0719272 9.37847C-0.0228727 9.18509 -0.0228727 8.96438 0.0731272 8.771C1.29833 6.28647 3.02392 4.22864 5.06632 2.82137C9.02392 0.0793494 14.2223 -0.0562276 18.3335 2.44197L20.8631 0.225436ZM20.4286 5.1471C20.815 4.89171 21.3646 4.96002 21.6574 5.29949C22.5262 6.30949 23.2894 7.47818 23.929 8.76985C24.025 8.96428 24.025 9.18604 23.929 9.37942C21.4126 14.4862 16.9534 17.5351 12.001 17.5351C10.8754 17.5351 9.757 17.3753 8.6782 17.06C8.2186 16.9244 7.9702 16.4893 8.1238 16.0868C8.2762 15.6832 8.7718 15.4688 9.2338 15.6002C10.1338 15.8629 11.065 15.9964 12.001 15.9964C16.135 15.9964 19.9114 13.4163 22.1626 9.07568C21.6118 8.01524 20.971 7.05779 20.2546 6.22436C19.963 5.88489 20.0398 5.40354 20.4286 5.1471ZM15.7706 8.89874L15.8886 8.91036C16.3662 8.98498 16.6842 9.38436 16.5978 9.8037C16.257 11.4727 14.7462 12.7969 12.8406 13.1006C12.7878 13.108 12.735 13.1122 12.6822 13.1122C12.267 13.1122 11.8962 12.8526 11.8194 12.4816C11.733 12.0633 12.0498 11.6629 12.5274 11.5862C13.7154 11.398 14.6562 10.572 14.8698 9.5315C14.955 9.1153 15.4146 8.83469 15.8886 8.91036L15.7706 8.89874ZM12.0011 6.51243C10.3871 6.51243 9.07432 7.66116 9.07432 9.07579C9.07432 9.49303 9.20152 9.8903 9.41752 10.2508L13.3439 6.81196C12.9335 6.62384 12.4751 6.51243 12.0011 6.51243Z" fill="#451A4A"/>
</svg>
