<svg width="160" height="160" viewBox="0 0 160 160" fill="none" xmlns="http://www.w3.org/2000/svg">
<path d="M160 79.9999C160 84.7466 159.587 89.3961 158.794 93.9152C152.209 131.465 119.436 160 80 160C78.7886 160 77.5838 159.973 76.3857 159.92C33.88 158.029 0 122.971 0 79.9999C0 35.8171 35.8171 0 80 0C124.183 0 160 35.8171 160 79.9999Z" fill="#4693F8"/>
<path d="M158.794 93.9148C152.208 131.464 119.436 160 79.9995 160C78.7881 160 77.5834 159.973 76.3853 159.92C58.57 142.1 43.8281 127.347 43.7129 127.215C41.3929 125.206 40.1319 122.143 40.4814 118.966C41.2576 111.899 43.4976 104.863 48.6176 101.677C58.0529 95.8053 67.4186 93.3033 67.4186 93.3033C67.7491 92.2767 68.1195 88.8786 68.3138 85.4005C67.1186 84.1595 65.9348 82.8643 64.6862 81.6367C62.6691 79.6538 62.17 76.95 61.5472 73.5453C61.1014 73.3472 60.8472 72.9643 60.6176 72.6138C60.6157 72.611 60.6138 72.6072 60.611 72.6034C60.1586 72.4072 59.9024 72.0205 59.671 71.6672C59.6691 71.6643 59.6672 71.6605 59.6643 71.6567C59.2119 71.4605 58.9557 71.0738 58.7243 70.7215C58.4424 70.2891 58.331 69.7719 58.2262 69.2672C57.8462 67.451 57.4662 65.6358 57.0872 63.8205C56.8014 62.4567 56.5148 61.0596 56.7081 59.6796C56.8014 59.0272 57.0329 58.3434 57.5691 57.9596C58.1043 57.5758 58.9995 57.6681 59.2681 58.271C59.2681 58.271 58.3995 49.7253 58.3995 50.4443C57.6738 49.6386 57.0995 47.8843 57.3395 46.5281C57.5795 45.1729 58.011 43.8539 58.2262 42.4948C58.4605 41.0015 58.4367 39.4615 58.8653 38.012C59.4691 35.9691 60.9138 34.2948 62.3843 32.7529C63.4262 31.6615 64.5034 30.6005 65.6776 29.6548C68.031 27.7634 70.8357 26.3405 73.8367 26.0043C74.7995 25.8967 75.771 25.9015 76.7395 25.9063C77.8253 25.912 78.9129 25.9167 79.9995 25.9224C81.0862 25.9167 82.1738 25.912 83.2595 25.9063C84.2281 25.9015 85.1995 25.8967 86.1624 26.0043C89.1633 26.3405 91.9681 27.7634 94.3214 29.6548C95.3472 30.4805 96.2976 31.3939 97.2157 32.3396C97.4072 32.5243 131.332 66.4491 158.794 93.9148Z" fill="#4693F8"/>
<path d="M113.663 128.826C107.742 131.248 97.1368 134.095 79.9997 134.095C62.8625 134.095 52.2571 131.248 46.3368 128.826C42.401 127.216 40.0172 123.193 40.4813 118.966C41.2577 111.899 43.498 104.863 48.6181 101.677C58.0533 95.8054 67.419 93.3036 67.419 93.3036C67.749 92.2766 68.1198 88.879 68.314 85.4003C67.1191 84.1591 65.9348 82.8639 64.6858 81.6364C62.3081 79.2997 62.0406 75.9598 61.1918 71.6516C59.6321 72.0949 59.1388 71.3524 58.7247 70.721C58.4425 70.2893 58.3315 69.772 58.2258 69.2669C57.8457 67.4513 57.4664 65.6357 57.0871 63.8201C56.8018 62.4563 56.515 61.0592 56.7085 59.6792C56.801 59.0269 57.0331 58.3431 57.5689 57.9592C58.1047 57.5761 58.9998 57.6686 59.2681 58.2706C59.2681 58.2706 58.3993 49.7252 58.3993 50.4446C57.6737 49.6389 57.0994 47.8842 57.3399 46.528C57.5797 45.1727 58.0107 43.8535 58.2257 42.4943C58.4609 41.0017 58.4362 39.4613 58.8649 38.0119C59.4694 35.9689 60.9141 34.2943 62.3843 32.7531C63.4259 31.6614 64.503 30.6006 65.6779 29.6547C68.031 27.7634 70.8358 26.3403 73.8363 26.0041C74.7993 25.897 75.7707 25.9015 76.739 25.9062C77.8253 25.9116 78.9123 25.917 79.9994 25.9224C81.0864 25.917 82.1735 25.9116 83.2597 25.9062C84.228 25.9015 85.1995 25.897 86.1624 26.0041C89.163 26.3403 91.9678 27.7634 94.3208 29.6547C95.4957 30.6007 96.5728 31.6615 97.6144 32.7531C99.0847 34.2943 100.529 35.9689 101.134 38.0119C101.563 39.4613 101.538 41.0017 101.773 42.4943C101.988 43.8535 102.419 45.1727 102.659 46.528C102.899 47.8841 102.325 49.6388 101.599 50.4446C101.599 49.7252 100.731 58.2706 100.731 58.2706C100.999 57.6686 101.894 57.576 102.43 57.9592C102.966 58.3431 103.198 59.027 103.29 59.6792C103.484 61.0592 103.197 62.4563 102.912 63.8201C102.532 65.6357 102.153 67.4513 101.773 69.2669C101.667 69.7719 101.556 70.2892 101.274 70.721C100.86 71.3524 100.367 72.0949 98.8069 71.6516C97.958 75.9598 97.6905 79.2996 95.3129 81.6364C94.0639 82.8638 92.8797 84.159 91.6847 85.4003C91.879 88.879 92.2498 92.2766 92.5797 93.3036C92.5797 93.3036 101.945 95.8054 111.381 101.677C116.501 104.863 118.741 111.899 119.517 118.966C119.982 123.193 117.598 127.216 113.663 128.826Z" fill="white"/>
</svg>
